<svg width="100" height="100" viewBox="0 0 100 100" fill="none" xmlns="http://www.w3.org/2000/svg">
<rect width="100" height="100" rx="15" fill="url(#paint0_linear_2753_699)"/>
<path d="M12.6858 51.584C12.6858 50.6773 12.8671 49.8827 13.2298 49.2C13.6031 48.5067 14.1151 47.9733 14.7658 47.6C15.4164 47.2267 16.1631 47.04 17.0058 47.04C18.0724 47.04 18.9524 47.296 19.6458 47.808C20.3498 48.3093 20.8244 49.0293 21.0698 49.968H19.1018C18.9418 49.5307 18.6858 49.1893 18.3338 48.944C17.9818 48.6987 17.5391 48.576 17.0058 48.576C16.2591 48.576 15.6618 48.8427 15.2138 49.376C14.7764 49.8987 14.5578 50.6347 14.5578 51.584C14.5578 52.5333 14.7764 53.2747 15.2138 53.808C15.6618 54.3413 16.2591 54.608 17.0058 54.608C18.0618 54.608 18.7604 54.144 19.1018 53.216H21.0698C20.8138 54.112 20.3338 54.8267 19.6298 55.36C18.9258 55.8827 18.0511 56.144 17.0058 56.144C16.1631 56.144 15.4164 55.9573 14.7658 55.584C14.1151 55.2 13.6031 54.6667 13.2298 53.984C12.8671 53.2907 12.6858 52.4907 12.6858 51.584ZM22.7795 51.552C22.7795 50.6667 22.9608 49.8827 23.3235 49.2C23.6968 48.5173 24.1982 47.9893 24.8275 47.616C25.4675 47.232 26.1715 47.04 26.9395 47.04C27.6328 47.04 28.2355 47.1787 28.7475 47.456C29.2702 47.7227 29.6862 48.0587 29.9955 48.464V47.184H31.8355V56H29.9955V54.688C29.6862 55.104 29.2648 55.4507 28.7315 55.728C28.1982 56.0053 27.5902 56.144 26.9075 56.144C26.1502 56.144 25.4568 55.952 24.8275 55.568C24.1982 55.1733 23.6968 54.6293 23.3235 53.936C22.9608 53.232 22.7795 52.4373 22.7795 51.552ZM29.9955 51.584C29.9955 50.976 29.8675 50.448 29.6115 50C29.3662 49.552 29.0408 49.2107 28.6355 48.976C28.2302 48.7413 27.7928 48.624 27.3235 48.624C26.8542 48.624 26.4168 48.7413 26.0115 48.976C25.6062 49.2 25.2755 49.536 25.0195 49.984C24.7742 50.4213 24.6515 50.944 24.6515 51.552C24.6515 52.16 24.7742 52.6933 25.0195 53.152C25.2755 53.6107 25.6062 53.9627 26.0115 54.208C26.4275 54.4427 26.8648 54.56 27.3235 54.56C27.7928 54.56 28.2302 54.4427 28.6355 54.208C29.0408 53.9733 29.3662 53.632 29.6115 53.184C29.8675 52.7253 29.9955 52.192 29.9955 51.584ZM37.9313 56.144C37.2379 56.144 36.6139 56.0213 36.0593 55.776C35.5153 55.52 35.0833 55.1787 34.7633 54.752C34.4433 54.3147 34.2726 53.8293 34.2513 53.296H36.1393C36.1713 53.6693 36.3473 53.984 36.6673 54.24C36.9979 54.4853 37.4086 54.608 37.8993 54.608C38.4113 54.608 38.8059 54.512 39.0833 54.32C39.3713 54.1173 39.5153 53.8613 39.5153 53.552C39.5153 53.2213 39.3553 52.976 39.0353 52.816C38.7259 52.656 38.2299 52.48 37.5473 52.288C36.8859 52.1067 36.3473 51.9307 35.9313 51.76C35.5153 51.5893 35.1526 51.328 34.8433 50.976C34.5446 50.624 34.3953 50.16 34.3953 49.584C34.3953 49.1147 34.5339 48.688 34.8113 48.304C35.0886 47.9093 35.4833 47.6 35.9953 47.376C36.5179 47.152 37.1153 47.04 37.7873 47.04C38.7899 47.04 39.5953 47.296 40.2033 47.808C40.8219 48.3093 41.1526 48.9973 41.1953 49.872H39.3713C39.3393 49.4773 39.1793 49.1627 38.8913 48.928C38.6033 48.6933 38.2139 48.576 37.7233 48.576C37.2433 48.576 36.8753 48.6667 36.6193 48.848C36.3633 49.0293 36.2353 49.2693 36.2353 49.568C36.2353 49.8027 36.3206 50 36.4913 50.16C36.6619 50.32 36.8699 50.448 37.1153 50.544C37.3606 50.6293 37.7233 50.7413 38.2033 50.88C38.8433 51.0507 39.3659 51.2267 39.7713 51.408C40.1873 51.5787 40.5446 51.8347 40.8433 52.176C41.1419 52.5173 41.2966 52.9707 41.3073 53.536C41.3073 54.0373 41.1686 54.4853 40.8913 54.88C40.6139 55.2747 40.2193 55.584 39.7073 55.808C39.2059 56.032 38.6139 56.144 37.9313 56.144ZM48.3381 47.04C49.0101 47.04 49.6075 47.184 50.1301 47.472C50.6635 47.76 51.0795 48.1867 51.3781 48.752C51.6875 49.3173 51.8421 50 51.8421 50.8V56H50.0341V51.072C50.0341 50.2827 49.8368 49.68 49.4421 49.264C49.0475 48.8373 48.5088 48.624 47.8261 48.624C47.1435 48.624 46.5995 48.8373 46.1941 49.264C45.7995 49.68 45.6021 50.2827 45.6021 51.072V56H43.7781V44.16H45.6021V48.208C45.9115 47.8347 46.3008 47.5467 46.7701 47.344C47.2501 47.1413 47.7728 47.04 48.3381 47.04ZM58.3648 48.672H56.7328V56H54.8928V48.672H53.8528V47.184H54.8928V46.56C54.8928 45.5467 55.1594 44.8107 55.6928 44.352C56.2368 43.8827 57.0848 43.648 58.2368 43.648V45.168C57.6821 45.168 57.2928 45.2747 57.0688 45.488C56.8448 45.6907 56.7328 46.048 56.7328 46.56V47.184H58.3648V48.672ZM62.3053 44.16V56H60.4813V44.16H62.3053ZM69.024 56.144C68.192 56.144 67.44 55.9573 66.768 55.584C66.096 55.2 65.568 54.6667 65.184 53.984C64.8 53.2907 64.608 52.4907 64.608 51.584C64.608 50.688 64.8053 49.8933 65.2 49.2C65.5947 48.5067 66.1333 47.9733 66.816 47.6C67.4987 47.2267 68.2613 47.04 69.104 47.04C69.9467 47.04 70.7093 47.2267 71.392 47.6C72.0747 47.9733 72.6133 48.5067 73.008 49.2C73.4027 49.8933 73.6 50.688 73.6 51.584C73.6 52.48 73.3973 53.2747 72.992 53.968C72.5867 54.6613 72.032 55.2 71.328 55.584C70.6347 55.9573 69.8667 56.144 69.024 56.144ZM69.024 54.56C69.4933 54.56 69.9307 54.448 70.336 54.224C70.752 54 71.088 53.664 71.344 53.216C71.6 52.768 71.728 52.224 71.728 51.584C71.728 50.944 71.6053 50.4053 71.36 49.968C71.1147 49.52 70.7893 49.184 70.384 48.96C69.9787 48.736 69.5413 48.624 69.072 48.624C68.6027 48.624 68.1653 48.736 67.76 48.96C67.3653 49.184 67.0507 49.52 66.816 49.968C66.5813 50.4053 66.464 50.944 66.464 51.584C66.464 52.5333 66.704 53.2693 67.184 53.792C67.6747 54.304 68.288 54.56 69.024 54.56ZM87.7431 47.184L85.0071 56H83.0871L81.3111 49.488L79.5351 56H77.6151L74.8631 47.184H76.7191L78.5591 54.272L80.4311 47.184H82.3351L84.1271 54.24L85.9511 47.184H87.7431Z" fill="white"/>
<defs>
<linearGradient id="paint0_linear_2753_699" x1="0.0187471" y1="100" x2="99.9813" y2="-3.42067e-06" gradientUnits="userSpaceOnUse">
<stop stop-color="#1B1D20"/>
<stop offset="1" stop-color="#373B44"/>
</linearGradient>
</defs>
</svg>
