<svg width="830" height="68" viewBox="0 0 830 68" fill="none" xmlns="http://www.w3.org/2000/svg">
<path d="M2.61453 34.44C2.61453 31.04 3.29453 28.06 4.65453 25.5C6.05453 22.9 7.97453 20.9 10.4145 19.5C12.8545 18.1 15.6545 17.4 18.8145 17.4C22.8145 17.4 26.1145 18.36 28.7145 20.28C31.3545 22.16 33.1345 24.86 34.0545 28.38H26.6745C26.0745 26.74 25.1145 25.46 23.7945 24.54C22.4745 23.62 20.8145 23.16 18.8145 23.16C16.0145 23.16 13.7745 24.16 12.0945 26.16C10.4545 28.12 9.63453 30.88 9.63453 34.44C9.63453 38 10.4545 40.78 12.0945 42.78C13.7745 44.78 16.0145 45.78 18.8145 45.78C22.7745 45.78 25.3945 44.04 26.6745 40.56H34.0545C33.0945 43.92 31.2945 46.6 28.6545 48.6C26.0145 50.56 22.7345 51.54 18.8145 51.54C15.6545 51.54 12.8545 50.84 10.4145 49.44C7.97453 48 6.05453 46 4.65453 43.44C3.29453 40.84 2.61453 37.84 2.61453 34.44ZM39.0911 34.32C39.0911 31 39.7711 28.06 41.1311 25.5C42.5311 22.94 44.4111 20.96 46.7711 19.56C49.1711 18.12 51.8111 17.4 54.6911 17.4C57.2911 17.4 59.5511 17.92 61.4711 18.96C63.4311 19.96 64.9911 21.22 66.1511 22.74V17.94H73.0511V51H66.1511V46.08C64.9911 47.64 63.4111 48.94 61.4111 49.98C59.4111 51.02 57.1311 51.54 54.5711 51.54C51.7311 51.54 49.1311 50.82 46.7711 49.38C44.4111 47.9 42.5311 45.86 41.1311 43.26C39.7711 40.62 39.0911 37.64 39.0911 34.32ZM66.1511 34.44C66.1511 32.16 65.6711 30.18 64.7111 28.5C63.7911 26.82 62.5711 25.54 61.0511 24.66C59.5311 23.78 57.8911 23.34 56.1311 23.34C54.3711 23.34 52.7311 23.78 51.2111 24.66C49.6911 25.5 48.4511 26.76 47.4911 28.44C46.5711 30.08 46.1111 32.04 46.1111 34.32C46.1111 36.6 46.5711 38.6 47.4911 40.32C48.4511 42.04 49.6911 43.36 51.2111 44.28C52.7711 45.16 54.4111 45.6 56.1311 45.6C57.8911 45.6 59.5311 45.16 61.0511 44.28C62.5711 43.4 63.7911 42.12 64.7111 40.44C65.6711 38.72 66.1511 36.72 66.1511 34.44ZM94.5352 51.54C91.9352 51.54 89.5952 51.08 87.5152 50.16C85.4752 49.2 83.8552 47.92 82.6552 46.32C81.4552 44.68 80.8152 42.86 80.7352 40.86H87.8152C87.9352 42.26 88.5952 43.44 89.7952 44.4C91.0352 45.32 92.5752 45.78 94.4152 45.78C96.3352 45.78 97.8152 45.42 98.8552 44.7C99.9352 43.94 100.475 42.98 100.475 41.82C100.475 40.58 99.8752 39.66 98.6752 39.06C97.5152 38.46 95.6552 37.8 93.0952 37.08C90.6152 36.4 88.5952 35.74 87.0352 35.1C85.4752 34.46 84.1152 33.48 82.9552 32.16C81.8352 30.84 81.2752 29.1 81.2752 26.94C81.2752 25.18 81.7952 23.58 82.8352 22.14C83.8752 20.66 85.3552 19.5 87.2752 18.66C89.2352 17.82 91.4752 17.4 93.9952 17.4C97.7552 17.4 100.775 18.36 103.055 20.28C105.375 22.16 106.615 24.74 106.775 28.02H99.9352C99.8152 26.54 99.2152 25.36 98.1352 24.48C97.0552 23.6 95.5952 23.16 93.7552 23.16C91.9552 23.16 90.5752 23.5 89.6152 24.18C88.6552 24.86 88.1752 25.76 88.1752 26.88C88.1752 27.76 88.4952 28.5 89.1352 29.1C89.7752 29.7 90.5552 30.18 91.4752 30.54C92.3952 30.86 93.7552 31.28 95.5552 31.8C97.9552 32.44 99.9152 33.1 101.435 33.78C102.995 34.42 104.335 35.38 105.455 36.66C106.575 37.94 107.155 39.64 107.195 41.76C107.195 43.64 106.675 45.32 105.635 46.8C104.595 48.28 103.115 49.44 101.195 50.28C99.3152 51.12 97.0952 51.54 94.5352 51.54ZM132.186 17.4C134.706 17.4 136.946 17.94 138.906 19.02C140.906 20.1 142.466 21.7 143.586 23.82C144.746 25.94 145.326 28.5 145.326 31.5V51H138.546V32.52C138.546 29.56 137.806 27.3 136.326 25.74C134.846 24.14 132.826 23.34 130.266 23.34C127.706 23.34 125.666 24.14 124.146 25.74C122.666 27.3 121.926 29.56 121.926 32.52V51H115.086V6.6H121.926V21.78C123.086 20.38 124.546 19.3 126.306 18.54C128.106 17.78 130.066 17.4 132.186 17.4ZM168.411 23.52H162.291V51H155.391V23.52H151.491V17.94H155.391V15.6C155.391 11.8 156.391 9.04 158.391 7.32C160.431 5.56 163.611 4.68 167.931 4.68V10.38C165.851 10.38 164.391 10.78 163.551 11.58C162.711 12.34 162.291 13.68 162.291 15.6V17.94H168.411V23.52ZM181.813 6.6V51H174.973V6.6H181.813ZM205.633 51.54C202.513 51.54 199.693 50.84 197.173 49.44C194.653 48 192.673 46 191.233 43.44C189.793 40.84 189.073 37.84 189.073 34.44C189.073 31.08 189.813 28.1 191.293 25.5C192.773 22.9 194.793 20.9 197.353 19.5C199.913 18.1 202.773 17.4 205.933 17.4C209.093 17.4 211.953 18.1 214.513 19.5C217.073 20.9 219.093 22.9 220.573 25.5C222.053 28.1 222.793 31.08 222.793 34.44C222.793 37.8 222.033 40.78 220.513 43.38C218.993 45.98 216.913 48 214.273 49.44C211.673 50.84 208.793 51.54 205.633 51.54ZM205.633 45.6C207.393 45.6 209.033 45.18 210.553 44.34C212.113 43.5 213.373 42.24 214.333 40.56C215.293 38.88 215.773 36.84 215.773 34.44C215.773 32.04 215.313 30.02 214.393 28.38C213.473 26.7 212.253 25.44 210.733 24.6C209.213 23.76 207.573 23.34 205.813 23.34C204.053 23.34 202.413 23.76 200.893 24.6C199.413 25.44 198.233 26.7 197.353 28.38C196.473 30.02 196.033 32.04 196.033 34.44C196.033 38 196.933 40.76 198.733 42.72C200.573 44.64 202.873 45.6 205.633 45.6ZM274.455 17.94L264.195 51H256.995L250.335 26.58L243.675 51H236.475L226.155 17.94H233.115L240.015 44.52L247.035 17.94H254.175L260.895 44.4L267.735 17.94H274.455Z" fill="white"/>
<path d="M301.612 57H297.412V3.6H301.612V57ZM357.282 9.06L343.842 34.68V51H339.642V34.68L326.082 9.06H330.822L341.742 30.84L352.602 9.06H357.282ZM366.029 12.06C365.189 12.06 364.469 11.76 363.869 11.16C363.269 10.56 362.969 9.82 362.969 8.94C362.969 8.06 363.269 7.34 363.869 6.78C364.469 6.18 365.189 5.88 366.029 5.88C366.869 5.88 367.589 6.18 368.189 6.78C368.789 7.34 369.089 8.06 369.089 8.94C369.089 9.82 368.789 10.56 368.189 11.16C367.589 11.76 366.869 12.06 366.029 12.06ZM368.129 18.24V51H363.929V18.24H368.129ZM407.78 32.94C407.78 34.38 407.74 35.48 407.66 36.24H380.48C380.6 38.72 381.2 40.84 382.28 42.6C383.36 44.36 384.78 45.7 386.54 46.62C388.3 47.5 390.22 47.94 392.3 47.94C395.02 47.94 397.3 47.28 399.14 45.96C401.02 44.64 402.26 42.86 402.86 40.62H407.3C406.5 43.82 404.78 46.44 402.14 48.48C399.54 50.48 396.26 51.48 392.3 51.48C389.22 51.48 386.46 50.8 384.02 49.44C381.58 48.04 379.66 46.08 378.26 43.56C376.9 41 376.22 38.02 376.22 34.62C376.22 31.22 376.9 28.24 378.26 25.68C379.62 23.12 381.52 21.16 383.96 19.8C386.4 18.44 389.18 17.76 392.3 17.76C395.42 17.76 398.14 18.44 400.46 19.8C402.82 21.16 404.62 23 405.86 25.32C407.14 27.6 407.78 30.14 407.78 32.94ZM403.52 32.82C403.56 30.38 403.06 28.3 402.02 26.58C401.02 24.86 399.64 23.56 397.88 22.68C396.12 21.8 394.2 21.36 392.12 21.36C389 21.36 386.34 22.36 384.14 24.36C381.94 26.36 380.72 29.18 380.48 32.82H403.52ZM420.164 6.6V51H415.964V6.6H420.164ZM428.255 34.56C428.255 31.2 428.935 28.26 430.295 25.74C431.655 23.18 433.515 21.22 435.875 19.86C438.275 18.46 440.975 17.76 443.975 17.76C446.855 17.76 449.455 18.46 451.775 19.86C454.095 21.26 455.795 23.08 456.875 25.32V6.6H461.075V51H456.875V43.68C455.875 45.96 454.235 47.84 451.955 49.32C449.675 50.76 446.995 51.48 443.915 51.48C440.915 51.48 438.215 50.78 435.815 49.38C433.455 47.98 431.595 46 430.235 43.44C428.915 40.88 428.255 37.92 428.255 34.56ZM456.875 34.62C456.875 31.98 456.335 29.66 455.255 27.66C454.175 25.66 452.695 24.12 450.815 23.04C448.975 21.96 446.935 21.42 444.695 21.42C442.375 21.42 440.295 21.94 438.455 22.98C436.615 24.02 435.155 25.54 434.075 27.54C433.035 29.5 432.515 31.84 432.515 34.56C432.515 37.24 433.035 39.6 434.075 41.64C435.155 43.64 436.615 45.18 438.455 46.26C440.295 47.3 442.375 47.82 444.695 47.82C446.935 47.82 448.975 47.28 450.815 46.2C452.695 45.12 454.175 43.58 455.255 41.58C456.335 39.58 456.875 37.26 456.875 34.62ZM512.428 41.04H493.348L489.688 51H485.248L500.548 9.6H505.288L520.528 51H516.088L512.428 41.04ZM511.168 37.56L502.888 14.88L494.608 37.56H511.168ZM541.509 17.76C544.589 17.76 547.269 18.48 549.549 19.92C551.829 21.36 553.469 23.18 554.469 25.38V18.24H558.669V51.84C558.669 54.84 558.009 57.5 556.689 59.82C555.409 62.14 553.609 63.92 551.289 65.16C548.969 66.44 546.329 67.08 543.369 67.08C539.169 67.08 535.669 66.08 532.869 64.08C530.109 62.08 528.389 59.36 527.709 55.92H531.849C532.569 58.2 533.929 60.02 535.929 61.38C537.969 62.74 540.449 63.42 543.369 63.42C545.489 63.42 547.389 62.96 549.069 62.04C550.749 61.16 552.069 59.84 553.029 58.08C553.989 56.32 554.469 54.24 554.469 51.84V43.74C553.429 45.98 551.769 47.84 549.489 49.32C547.249 50.76 544.589 51.48 541.509 51.48C538.509 51.48 535.809 50.78 533.409 49.38C531.049 47.98 529.189 46 527.829 43.44C526.509 40.88 525.849 37.92 525.849 34.56C525.849 31.2 526.509 28.26 527.829 25.74C529.189 23.18 531.049 21.22 533.409 19.86C535.809 18.46 538.509 17.76 541.509 17.76ZM554.469 34.62C554.469 31.98 553.929 29.66 552.849 27.66C551.769 25.66 550.289 24.12 548.409 23.04C546.569 21.96 544.529 21.42 542.289 21.42C539.969 21.42 537.889 21.94 536.049 22.98C534.209 24.02 532.749 25.54 531.669 27.54C530.629 29.5 530.109 31.84 530.109 34.56C530.109 37.24 530.629 39.6 531.669 41.64C532.749 43.64 534.209 45.18 536.049 46.26C537.889 47.3 539.969 47.82 542.289 47.82C544.529 47.82 546.569 47.28 548.409 46.2C550.289 45.12 551.769 43.58 552.849 41.58C553.929 39.58 554.469 37.26 554.469 34.62ZM582.497 17.76C585.577 17.76 588.257 18.48 590.537 19.92C592.817 21.36 594.457 23.18 595.457 25.38V18.24H599.657V51.84C599.657 54.84 598.997 57.5 597.677 59.82C596.397 62.14 594.597 63.92 592.277 65.16C589.957 66.44 587.317 67.08 584.357 67.08C580.157 67.08 576.657 66.08 573.857 64.08C571.097 62.08 569.377 59.36 568.697 55.92H572.837C573.557 58.2 574.917 60.02 576.917 61.38C578.957 62.74 581.437 63.42 584.357 63.42C586.477 63.42 588.377 62.96 590.057 62.04C591.737 61.16 593.057 59.84 594.017 58.08C594.977 56.32 595.457 54.24 595.457 51.84V43.74C594.417 45.98 592.757 47.84 590.477 49.32C588.237 50.76 585.577 51.48 582.497 51.48C579.497 51.48 576.797 50.78 574.397 49.38C572.037 47.98 570.177 46 568.817 43.44C567.497 40.88 566.837 37.92 566.837 34.56C566.837 31.2 567.497 28.26 568.817 25.74C570.177 23.18 572.037 21.22 574.397 19.86C576.797 18.46 579.497 17.76 582.497 17.76ZM595.457 34.62C595.457 31.98 594.917 29.66 593.837 27.66C592.757 25.66 591.277 24.12 589.397 23.04C587.557 21.96 585.517 21.42 583.277 21.42C580.957 21.42 578.877 21.94 577.037 22.98C575.197 24.02 573.737 25.54 572.657 27.54C571.617 29.5 571.097 31.84 571.097 34.56C571.097 37.24 571.617 39.6 572.657 41.64C573.737 43.64 575.197 45.18 577.037 46.26C578.877 47.3 580.957 47.82 583.277 47.82C585.517 47.82 587.557 47.28 589.397 46.2C591.277 45.12 592.757 43.58 593.837 41.58C594.917 39.58 595.457 37.26 595.457 34.62ZM613.945 24.06C614.865 22.02 616.265 20.44 618.145 19.32C620.065 18.2 622.405 17.64 625.165 17.64V22.02H624.025C620.985 22.02 618.545 22.84 616.705 24.48C614.865 26.12 613.945 28.86 613.945 32.7V51H609.745V18.24H613.945V24.06ZM661.624 32.94C661.624 34.38 661.584 35.48 661.504 36.24H634.324C634.444 38.72 635.044 40.84 636.124 42.6C637.204 44.36 638.624 45.7 640.384 46.62C642.144 47.5 644.064 47.94 646.144 47.94C648.864 47.94 651.144 47.28 652.984 45.96C654.864 44.64 656.104 42.86 656.704 40.62H661.144C660.344 43.82 658.624 46.44 655.984 48.48C653.384 50.48 650.104 51.48 646.144 51.48C643.064 51.48 640.304 50.8 637.864 49.44C635.424 48.04 633.504 46.08 632.104 43.56C630.744 41 630.064 38.02 630.064 34.62C630.064 31.22 630.744 28.24 632.104 25.68C633.464 23.12 635.364 21.16 637.804 19.8C640.244 18.44 643.024 17.76 646.144 17.76C649.264 17.76 651.984 18.44 654.304 19.8C656.664 21.16 658.464 23 659.704 25.32C660.984 27.6 661.624 30.14 661.624 32.94ZM657.364 32.82C657.404 30.38 656.904 28.3 655.864 26.58C654.864 24.86 653.484 23.56 651.724 22.68C649.964 21.8 648.044 21.36 645.964 21.36C642.844 21.36 640.184 22.36 637.984 24.36C635.784 26.36 634.564 29.18 634.324 32.82H657.364ZM683.548 17.76C686.628 17.76 689.308 18.48 691.588 19.92C693.868 21.36 695.508 23.18 696.508 25.38V18.24H700.708V51.84C700.708 54.84 700.048 57.5 698.728 59.82C697.448 62.14 695.648 63.92 693.328 65.16C691.008 66.44 688.368 67.08 685.408 67.08C681.208 67.08 677.708 66.08 674.908 64.08C672.148 62.08 670.428 59.36 669.748 55.92H673.888C674.608 58.2 675.968 60.02 677.968 61.38C680.008 62.74 682.488 63.42 685.408 63.42C687.528 63.42 689.428 62.96 691.108 62.04C692.788 61.16 694.108 59.84 695.068 58.08C696.028 56.32 696.508 54.24 696.508 51.84V43.74C695.468 45.98 693.808 47.84 691.528 49.32C689.288 50.76 686.628 51.48 683.548 51.48C680.548 51.48 677.848 50.78 675.448 49.38C673.088 47.98 671.228 46 669.868 43.44C668.548 40.88 667.888 37.92 667.888 34.56C667.888 31.2 668.548 28.26 669.868 25.74C671.228 23.18 673.088 21.22 675.448 19.86C677.848 18.46 680.548 17.76 683.548 17.76ZM696.508 34.62C696.508 31.98 695.968 29.66 694.888 27.66C693.808 25.66 692.328 24.12 690.448 23.04C688.608 21.96 686.568 21.42 684.328 21.42C682.008 21.42 679.928 21.94 678.088 22.98C676.248 24.02 674.788 25.54 673.708 27.54C672.668 29.5 672.148 31.84 672.148 34.56C672.148 37.24 672.668 39.6 673.708 41.64C674.788 43.64 676.248 45.18 678.088 46.26C679.928 47.3 682.008 47.82 684.328 47.82C686.568 47.82 688.608 47.28 690.448 46.2C692.328 45.12 693.808 43.58 694.888 41.58C695.968 39.58 696.508 37.26 696.508 34.62ZM708.876 34.56C708.876 31.2 709.536 28.26 710.856 25.74C712.216 23.18 714.076 21.22 716.436 19.86C718.836 18.46 721.536 17.76 724.536 17.76C727.656 17.76 730.336 18.48 732.576 19.92C734.856 21.36 736.496 23.2 737.496 25.44V18.24H741.696V51H737.496V43.74C736.456 45.98 734.796 47.84 732.516 49.32C730.276 50.76 727.596 51.48 724.476 51.48C721.516 51.48 718.836 50.78 716.436 49.38C714.076 47.98 712.216 46 710.856 43.44C709.536 40.88 708.876 37.92 708.876 34.56ZM737.496 34.62C737.496 31.98 736.956 29.66 735.876 27.66C734.796 25.66 733.316 24.12 731.436 23.04C729.596 21.96 727.556 21.42 725.316 21.42C722.996 21.42 720.916 21.94 719.076 22.98C717.236 24.02 715.776 25.54 714.696 27.54C713.656 29.5 713.136 31.84 713.136 34.56C713.136 37.24 713.656 39.6 714.696 41.64C715.776 43.64 717.236 45.18 719.076 46.26C720.916 47.3 722.996 47.82 725.316 47.82C727.556 47.82 729.596 47.28 731.436 46.2C733.316 45.12 734.796 43.58 735.876 41.58C736.956 39.58 737.496 37.26 737.496 34.62ZM757.244 21.78V42.12C757.244 44.12 757.624 45.5 758.384 46.26C759.144 47.02 760.484 47.4 762.404 47.4H766.244V51H761.744C758.784 51 756.584 50.32 755.144 48.96C753.704 47.56 752.984 45.28 752.984 42.12V21.78H748.424V18.24H752.984V10.02H757.244V18.24H766.244V21.78H757.244ZM788.011 51.48C784.931 51.48 782.151 50.8 779.671 49.44C777.231 48.04 775.291 46.08 773.851 43.56C772.451 41 771.751 38.02 771.751 34.62C771.751 31.22 772.471 28.26 773.911 25.74C775.351 23.18 777.311 21.22 779.791 19.86C782.271 18.46 785.051 17.76 788.131 17.76C791.211 17.76 793.991 18.46 796.471 19.86C798.991 21.22 800.951 23.18 802.351 25.74C803.791 28.26 804.511 31.22 804.511 34.62C804.511 37.98 803.791 40.94 802.351 43.5C800.911 46.06 798.931 48.04 796.411 49.44C793.891 50.8 791.091 51.48 788.011 51.48ZM788.011 47.82C790.171 47.82 792.171 47.34 794.011 46.38C795.851 45.38 797.331 43.9 798.451 41.94C799.611 39.94 800.191 37.5 800.191 34.62C800.191 31.74 799.631 29.32 798.511 27.36C797.391 25.36 795.911 23.88 794.071 22.92C792.231 21.92 790.231 21.42 788.071 21.42C785.911 21.42 783.911 21.92 782.071 22.92C780.231 23.88 778.751 25.36 777.631 27.36C776.551 29.32 776.011 31.74 776.011 34.62C776.011 37.5 776.551 39.94 777.631 41.94C778.751 43.9 780.211 45.38 782.011 46.38C783.851 47.34 785.851 47.82 788.011 47.82ZM816.867 24.06C817.787 22.02 819.187 20.44 821.067 19.32C822.987 18.2 825.327 17.64 828.087 17.64V22.02H826.947C823.907 22.02 821.467 22.84 819.627 24.48C817.787 26.12 816.867 28.86 816.867 32.7V51H812.667V18.24H816.867V24.06Z" fill="#565656"/>
</svg>
