<svg width="64" height="28" viewBox="0 0 64 28" fill="none" xmlns="http://www.w3.org/2000/svg">
<path d="M14 26C29 26 35 2 50 2C53.1826 2 56.2348 3.26428 58.4853 5.51472C60.7357 7.76515 62 10.8174 62 14C62 17.1826 60.7357 20.2348 58.4853 22.4853C56.2348 24.7357 53.1826 26 50 26C35 26 29 2 14 2C10.8174 2 7.76516 3.26428 5.51472 5.51472C3.26428 7.76515 2 10.8174 2 14C2 17.1826 3.26428 20.2348 5.51472 22.4853C7.76516 24.7357 10.8174 26 14 26Z" stroke="white" stroke-width="4" stroke-linecap="round" stroke-linejoin="round"/>
</svg>
