<svg width="28" height="28" viewBox="0 0 28 28" fill="none" xmlns="http://www.w3.org/2000/svg">
<path fill-rule="evenodd" clip-rule="evenodd" d="M8.575 8.11806C8.575 5.5175 10.8009 3.5 13.4312 3.5C15.9086 3.5 18.0272 5.28962 18.2653 7.67045L20.6016 7.04288C20.7756 6.9961 20.9548 6.94792 21.1098 6.91999C21.2776 6.88974 21.5144 6.86299 21.7745 6.93236C22.1091 7.02161 22.4099 7.22884 22.6078 7.52907C22.7651 7.7678 22.8067 8.01429 22.8229 8.18561C22.8376 8.34034 22.8376 8.52184 22.8375 8.68947L22.8375 9.89426C22.8443 9.90074 22.8516 9.90758 22.8592 9.91485C23.4894 10.512 24.0128 11.2143 24.3963 11.9943C24.4073 12.0166 24.4172 12.0369 24.4264 12.0555C24.4433 12.0556 24.4614 12.0556 24.4812 12.0556L24.5027 12.0556C24.6354 12.0555 24.7777 12.0555 24.9009 12.0645C25.0389 12.0746 25.2219 12.0995 25.414 12.1864C25.7027 12.3172 25.9475 12.5417 26.0974 12.8343C26.1991 13.0327 26.2283 13.2236 26.24 13.3642C26.2501 13.4863 26.25 13.6259 26.25 13.7487L26.25 17.4455C26.25 17.5745 26.2501 17.7211 26.239 17.8492C26.2261 17.9969 26.1938 18.197 26.0823 18.4027C25.9365 18.6718 25.7094 18.8808 25.4425 19.0086C25.2426 19.1044 25.0504 19.1318 24.9056 19.1429C24.7764 19.1528 24.6269 19.1528 24.4875 19.1528L23.8493 19.1528C23.8288 19.1528 23.8104 19.1528 23.7936 19.1528C23.781 19.1701 23.767 19.1892 23.7512 19.2108C22.9671 20.2854 21.8894 21.1462 20.6332 21.6945C20.6075 21.7058 20.5841 21.716 20.5625 21.7254L20.5625 22.7927C20.5625 22.9217 20.5626 23.0683 20.5515 23.1964C20.5386 23.3442 20.5063 23.5442 20.3948 23.75C20.249 24.0191 20.0218 24.228 19.755 24.3558C19.5551 24.4516 19.3629 24.479 19.2181 24.4901C19.0889 24.5001 18.9395 24.5 18.8001 24.5H16.5936C16.4542 24.5 16.3047 24.5001 16.1756 24.4901C16.0307 24.479 15.8385 24.4516 15.6387 24.3558C15.3718 24.228 15.1447 24.0191 14.9989 23.75C14.8874 23.5442 14.855 23.3441 14.8422 23.1964C14.8311 23.0683 14.8311 22.9217 14.8312 22.7927L14.8312 22.3611C14.8199 22.3611 14.8082 22.3611 14.7962 22.3611H13.2037C13.1916 22.3611 13.1799 22.3611 13.1687 22.3611L13.1687 22.7927C13.1687 22.9217 13.1688 23.0683 13.1576 23.1964C13.1448 23.3441 13.1125 23.5442 13.001 23.75C12.8551 24.0191 12.628 24.228 12.3612 24.3558C12.1613 24.4516 11.9691 24.479 11.8242 24.4901C11.6951 24.5001 11.5456 24.5 11.4063 24.5H9.19983C9.06046 24.5 8.91098 24.5001 8.78185 24.4901C8.63698 24.479 8.44479 24.4516 8.24494 24.3558C7.97808 24.228 7.75097 24.0191 7.60512 23.75C7.49363 23.5442 7.46129 23.3441 7.44845 23.1964C7.43733 23.0683 7.43737 22.9217 7.43742 22.7927L7.43742 20.2446C7.43059 20.2382 7.42336 20.2313 7.41569 20.224C6.23391 19.1043 5.42814 17.6137 5.2173 15.9444H4.9C3.21194 15.9444 1.75 14.6452 1.75 12.9306C1.75 11.7868 2.41161 10.8165 3.34445 10.3091C3.76898 10.0783 4.30029 10.2352 4.53117 10.6598C4.76206 11.0843 4.60508 11.6156 4.18055 11.8465C3.75339 12.0788 3.5 12.4909 3.5 12.9306C3.5 13.5785 4.07516 14.1944 4.9 14.1944H5.21687C5.49359 11.9886 6.80371 10.1069 8.65607 8.96224C8.60283 8.68831 8.575 8.40609 8.575 8.11806ZM10.3258 8.18284C11.1214 7.92011 11.9753 7.77778 12.8624 7.77778H16.5154C16.3348 6.39208 15.0663 5.25 13.4312 5.25C11.6641 5.25 10.325 6.58414 10.325 8.11806C10.325 8.13971 10.3253 8.1613 10.3258 8.18284ZM10.0293 10.1935C8.15863 11.1394 6.91242 12.9901 6.91242 15.0694C6.91242 16.574 7.55618 17.9463 8.61935 18.9537C8.62712 18.9611 8.63572 18.9691 8.64502 18.9779C8.72852 19.0561 8.86801 19.1868 8.96379 19.3347C9.04811 19.4649 9.10628 19.5968 9.14492 19.7489C9.18929 19.9235 9.18816 20.1056 9.18754 20.2058C9.18748 20.2164 9.18742 20.226 9.18742 20.2347V22.75C9.1987 22.75 9.21035 22.75 9.22242 22.75H11.3837C11.3957 22.75 11.4074 22.75 11.4187 22.75L11.4187 22.3184C11.4186 22.1894 11.4186 22.0428 11.4297 21.9147C11.4425 21.767 11.4749 21.5669 11.5864 21.3612C11.7322 21.092 11.9593 20.8831 12.2262 20.7553C12.426 20.6595 12.6182 20.6321 12.7631 20.621C12.8922 20.611 13.0417 20.6111 13.1811 20.6111H14.8188C14.9581 20.6111 15.1076 20.611 15.2367 20.621C15.3816 20.6321 15.5738 20.6595 15.7737 20.7553C16.0405 20.8831 16.2676 21.092 16.4135 21.3612C16.525 21.5669 16.5573 21.767 16.5701 21.9147C16.5813 22.0428 16.5812 22.1894 16.5812 22.3184L16.5812 22.75C16.5924 22.75 16.6041 22.75 16.6162 22.75H18.7775C18.7896 22.75 18.8012 22.75 18.8125 22.75L18.8125 21.7093C18.8125 21.6161 18.8125 21.5102 18.8183 21.417C18.825 21.3109 18.8417 21.165 18.9015 21.0063C18.9823 20.7923 19.1004 20.6204 19.2651 20.4687C19.3912 20.3524 19.5259 20.2796 19.6174 20.234C19.7059 20.1898 19.8129 20.1431 19.9179 20.0973L19.9332 20.0907C20.9116 19.6636 21.7406 18.9974 22.3376 18.1793C22.3456 18.1682 22.3544 18.156 22.3639 18.1429C22.4489 18.0248 22.5881 17.8314 22.7627 17.699C22.9137 17.5846 23.0686 17.5085 23.2483 17.458C23.4517 17.4007 23.6704 17.4019 23.8085 17.4026C23.823 17.4027 23.8367 17.4028 23.8493 17.4028H24.465C24.4771 17.4028 24.4887 17.4028 24.5 17.4028V13.8056C24.4939 13.8056 24.4876 13.8056 24.4812 13.8056C24.4665 13.8056 24.4505 13.8057 24.4336 13.8058C24.275 13.8067 24.0251 13.8082 23.7992 13.7367C23.5748 13.6655 23.3863 13.5537 23.2157 13.3844C23.0975 13.267 23.0214 13.1412 22.973 13.0546C22.9273 12.9728 22.879 12.8745 22.8329 12.7808L22.8258 12.7663C22.5371 12.179 22.1399 11.6441 21.6556 11.1852C21.6478 11.1778 21.6392 11.1697 21.6299 11.161C21.5464 11.0828 21.4069 10.952 21.3111 10.8042C21.2268 10.674 21.1686 10.5421 21.13 10.39C21.0856 10.2154 21.0868 10.0333 21.0874 9.93306C21.0874 9.9225 21.0875 9.91285 21.0875 9.90422V8.7244C21.069 8.72937 21.0497 8.73455 21.0295 8.73997L18.3307 9.46491C18.3277 9.46571 18.3245 9.46658 18.3211 9.4675C18.2864 9.47688 18.2304 9.492 18.1712 9.50299C18.1203 9.51242 18.0691 9.51917 18.0176 9.52322C17.9577 9.52793 17.8996 9.52784 17.8633 9.52779C17.8597 9.52778 17.8563 9.52778 17.8532 9.52778H12.8624C11.8514 9.52778 10.9033 9.7621 10.0738 10.173C10.0591 10.1803 10.0443 10.1871 10.0293 10.1935ZM24.2573 12.0524L24.2589 12.0526L24.2573 12.0524Z" fill="#B2B2B2"/>
</svg>
