<svg width="28" height="28" viewBox="0 0 28 28" fill="none" xmlns="http://www.w3.org/2000/svg">
<path fill-rule="evenodd" clip-rule="evenodd" d="M1.88078 11.922C1.75 12.3869 1.75 12.8921 1.75 13.9025V22.0059C1.75 23.476 1.75 24.2111 2.03611 24.7726C2.28778 25.2665 2.68935 25.6681 3.18327 25.9198C3.74479 26.2059 4.47986 26.2059 5.95 26.2059H8.81076C9.45457 26.2059 9.77648 26.2059 10.0436 26.1497C11.0623 25.9355 11.8581 25.1397 12.0723 24.121C12.1285 23.8539 12.1285 23.532 12.1285 22.8882V21.442C12.1285 20.4084 12.9664 19.5704 14 19.5704C15.0336 19.5704 15.8715 20.4084 15.8715 21.442V22.8882C15.8715 23.532 15.8715 23.8539 15.9277 24.121C16.1419 25.1397 16.9377 25.9355 17.9564 26.1497C18.2235 26.2059 18.5454 26.2059 19.1892 26.2059H22.05C23.5201 26.2059 24.2552 26.2059 24.8167 25.9198C25.3107 25.6681 25.7122 25.2665 25.9639 24.7726C26.25 24.2111 26.25 23.476 26.25 22.0059V13.9025C26.25 12.8921 26.25 12.3869 26.1192 11.922C26.0034 11.5102 25.813 11.1231 25.5576 10.78C25.2693 10.3926 24.8691 10.0841 24.0688 9.46726L17.4188 4.34122C16.1953 3.39805 15.5835 2.92646 14.9088 2.74506C14.3135 2.58498 13.6865 2.58498 13.0912 2.74506C12.4165 2.92646 11.8047 3.39805 10.5812 4.34123L3.93116 9.46727C3.13088 10.0841 2.73074 10.3926 2.44239 10.78C2.18697 11.1231 1.99662 11.5102 1.88078 11.922ZM24.5 22.0059V13.9025C24.5 12.7924 24.4846 12.5738 24.4346 12.3959C24.3767 12.19 24.2815 11.9965 24.1538 11.8249C24.0435 11.6767 23.8797 11.531 23.0005 10.8533L16.3505 5.72724C14.9999 4.6862 14.7094 4.5036 14.4544 4.43503C14.1568 4.35499 13.8432 4.35499 13.5456 4.43503C13.2906 4.5036 13.0001 4.6862 11.6495 5.72724L4.99954 10.8533C4.12032 11.531 3.95652 11.6767 3.84619 11.8249C3.71848 11.9965 3.62331 12.19 3.56539 12.3959C3.51535 12.5738 3.5 12.7924 3.5 13.9025V22.0059C3.5 22.7698 3.50136 23.2375 3.52995 23.5875C3.54327 23.7505 3.56 23.8491 3.5741 23.909C3.58081 23.9375 3.58644 23.955 3.58982 23.9645C3.59307 23.9736 3.59537 23.9781 3.59537 23.9781C3.67926 24.1427 3.81312 24.2766 3.97776 24.3605C3.97776 24.3605 3.98228 24.3628 3.99138 24.366C4.00086 24.3694 4.01838 24.375 4.04687 24.3818C4.10677 24.3959 4.2054 24.4126 4.36841 24.4259C4.71834 24.4545 5.18605 24.4559 5.95 24.4559H8.81076C9.1452 24.4559 9.34983 24.4556 9.50525 24.45C9.65348 24.4446 9.68907 24.436 9.68353 24.4371C10.0231 24.3657 10.2883 24.1005 10.3597 23.7609C10.3586 23.7665 10.3672 23.7309 10.3726 23.5826C10.3782 23.4272 10.3785 23.2226 10.3785 22.8882V21.442C10.3785 19.4419 11.9999 17.8204 14 17.8204C16.0001 17.8204 17.6215 19.4419 17.6215 21.442V22.8882C17.6215 23.2226 17.6218 23.4272 17.6274 23.5826C17.6328 23.7309 17.6414 23.7665 17.6403 23.7609C17.7117 24.1005 17.9769 24.3657 18.3165 24.4371C18.3109 24.436 18.3465 24.4446 18.4947 24.45C18.6502 24.4556 18.8548 24.4559 19.1892 24.4559H22.05C22.8139 24.4559 23.2817 24.4545 23.6316 24.4259C23.7946 24.4126 23.8932 24.3959 23.9531 24.3818C23.9816 24.375 23.9991 24.3694 24.0086 24.366C24.0144 24.364 24.0181 24.3624 24.0201 24.3615L24.0222 24.3605C24.1869 24.2766 24.3207 24.1427 24.4046 23.9781C24.4046 23.9781 24.4069 23.9736 24.4102 23.9645C24.4136 23.955 24.4192 23.9375 24.4259 23.909C24.44 23.8491 24.4567 23.7505 24.47 23.5875C24.4986 23.2375 24.5 22.7698 24.5 22.0059Z" fill="#B2B2B2"/>
</svg>
