<svg width="28" height="28" viewBox="0 0 28 28" fill="none" xmlns="http://www.w3.org/2000/svg">
<path fill-rule="evenodd" clip-rule="evenodd" d="M1.75 4.375C1.75 2.92525 2.92525 1.75 4.375 1.75H9.625C11.0747 1.75 12.25 2.92525 12.25 4.375V9.625C12.25 11.0747 11.0747 12.25 9.625 12.25H4.375C2.92525 12.25 1.75 11.0747 1.75 9.625V4.375ZM4.375 3.5H9.625C10.1082 3.5 10.5 3.89175 10.5 4.375V9.625C10.5 10.1082 10.1082 10.5 9.625 10.5H4.375C3.89175 10.5 3.5 10.1082 3.5 9.625V4.375C3.5 3.89175 3.89175 3.5 4.375 3.5Z" fill="#F95357"/>
<path fill-rule="evenodd" clip-rule="evenodd" d="M1.75 18.375C1.75 16.9253 2.92525 15.75 4.375 15.75H9.625C11.0747 15.75 12.25 16.9253 12.25 18.375V23.625C12.25 25.0747 11.0747 26.25 9.625 26.25H4.375C2.92525 26.25 1.75 25.0747 1.75 23.625V18.375ZM4.375 17.5H9.625C10.1082 17.5 10.5 17.8918 10.5 18.375V23.625C10.5 24.1082 10.1082 24.5 9.625 24.5H4.375C3.89175 24.5 3.5 24.1082 3.5 23.625V18.375C3.5 17.8918 3.89175 17.5 4.375 17.5Z" fill="#F95357"/>
<path fill-rule="evenodd" clip-rule="evenodd" d="M18.375 1.75C16.9253 1.75 15.75 2.92525 15.75 4.375V9.625C15.75 11.0747 16.9253 12.25 18.375 12.25H23.625C25.0747 12.25 26.25 11.0747 26.25 9.625V4.375C26.25 2.92525 25.0747 1.75 23.625 1.75H18.375ZM23.625 3.5H18.375C17.8918 3.5 17.5 3.89175 17.5 4.375V9.625C17.5 10.1082 17.8918 10.5 18.375 10.5H23.625C24.1082 10.5 24.5 10.1082 24.5 9.625V4.375C24.5 3.89175 24.1082 3.5 23.625 3.5Z" fill="#F95357"/>
<path fill-rule="evenodd" clip-rule="evenodd" d="M15.75 18.375C15.75 16.9253 16.9253 15.75 18.375 15.75H23.625C25.0747 15.75 26.25 16.9253 26.25 18.375V23.625C26.25 25.0747 25.0747 26.25 23.625 26.25H18.375C16.9253 26.25 15.75 25.0747 15.75 23.625V18.375ZM18.375 17.5H23.625C24.1082 17.5 24.5 17.8918 24.5 18.375V23.625C24.5 24.1082 24.1082 24.5 23.625 24.5H18.375C17.8918 24.5 17.5 24.1082 17.5 23.625V18.375C17.5 17.8918 17.8918 17.5 18.375 17.5Z" fill="#F95357"/>
</svg>
