<svg width="28" height="28" viewBox="0 0 28 28" fill="none" xmlns="http://www.w3.org/2000/svg">
<path fill-rule="evenodd" clip-rule="evenodd" d="M5.99899 7L18.5093 3.32049C20.1906 2.82601 21.875 4.08636 21.875 5.83883V7H22.05C23.5201 7 24.2552 7 24.8167 7.28611C25.3107 7.53778 25.7122 7.93935 25.9639 8.43327C26.25 8.99479 26.25 9.72986 26.25 11.2V22.05C26.25 23.5201 26.25 24.2552 25.9639 24.8167C25.7122 25.3107 25.3107 25.7122 24.8167 25.9639C24.2552 26.25 23.5201 26.25 22.05 26.25H5.95C4.47986 26.25 3.74479 26.25 3.18327 25.9639C2.68935 25.7122 2.28778 25.3107 2.03611 24.8167C1.75 24.2552 1.75 23.5201 1.75 22.05V11.2C1.75 9.72986 1.75 8.99479 2.03611 8.43327C2.28778 7.93935 2.68935 7.53778 3.18327 7.28611C3.74479 7 4.47986 7 5.95 7H5.99899ZM19.0031 4.99938C19.5635 4.83455 20.125 5.25467 20.125 5.83883V7H12.201L19.0031 4.99938ZM6.10471 8.75C6.11795 8.7503 6.13122 8.7503 6.14453 8.75H22.05C22.8139 8.75 23.2817 8.75136 23.6316 8.77995C23.7946 8.79327 23.8932 8.81 23.9531 8.8241C23.9816 8.83081 23.9991 8.83644 24.0086 8.83982C24.0177 8.84307 24.0222 8.84537 24.0222 8.84537C24.1869 8.92926 24.3207 9.06312 24.4046 9.22776C24.4046 9.22776 24.4069 9.23228 24.4102 9.24138C24.4136 9.25086 24.4192 9.26838 24.4259 9.29687C24.44 9.35677 24.4567 9.4554 24.47 9.61841C24.4986 9.96834 24.5 10.4361 24.5 11.2V15.3125H20.5625C20.0793 15.3125 19.6875 15.7043 19.6875 16.1875C19.6875 16.6707 20.0793 17.0625 20.5625 17.0625H24.5V22.05C24.5 22.8139 24.4986 23.2817 24.47 23.6316C24.4567 23.7946 24.44 23.8932 24.4259 23.9531C24.4192 23.9816 24.4136 23.9991 24.4102 24.0086C24.4069 24.0177 24.4046 24.0222 24.4046 24.0222C24.3207 24.1869 24.1869 24.3207 24.0222 24.4046C24.0222 24.4046 24.0177 24.4069 24.0086 24.4102C23.9991 24.4136 23.9816 24.4192 23.9531 24.4259C23.8932 24.44 23.7946 24.4567 23.6316 24.47C23.2817 24.4986 22.8139 24.5 22.05 24.5H5.95C5.18605 24.5 4.71834 24.4986 4.36841 24.47C4.2054 24.4567 4.10677 24.44 4.04687 24.4259C4.01838 24.4192 4.00086 24.4136 3.99138 24.4102C3.98228 24.4069 3.97776 24.4046 3.97776 24.4046C3.81312 24.3207 3.67926 24.1869 3.59537 24.0222C3.59537 24.0222 3.59307 24.0177 3.58982 24.0086C3.58644 23.9991 3.58081 23.9816 3.5741 23.9531C3.56 23.8932 3.54327 23.7946 3.52995 23.6316C3.50136 23.2817 3.5 22.8139 3.5 22.05V11.2C3.5 10.4361 3.50136 9.96834 3.52995 9.61841C3.54327 9.4554 3.56 9.35677 3.5741 9.29687C3.58081 9.26838 3.58644 9.25086 3.58982 9.24138C3.59307 9.23228 3.59537 9.22776 3.59537 9.22776C3.67926 9.06312 3.81312 8.92926 3.97776 8.84537C3.97776 8.84537 3.98228 8.84307 3.99138 8.83982C4.00086 8.83644 4.01838 8.83081 4.04687 8.8241C4.10677 8.81 4.2054 8.79327 4.36841 8.77995C4.71834 8.75136 5.18605 8.75 5.95 8.75H6.10471Z" fill="#B2B2B2"/>
</svg>
