<svg width="500" height="500" viewBox="0 0 500 500" fill="none" xmlns="http://www.w3.org/2000/svg">
<path d="M250 500C388.071 500 500 388.071 500 250C500 111.929 388.071 0 250 0C111.929 0 0 111.929 0 250C0 388.071 111.929 500 250 500Z" fill="#FEB94C"/>
<path d="M270.17 239.42L246.39 234.66C229.75 231.34 214.35 225.75 214.35 207.54C214.35 189.33 229.07 179.76 253.72 179.76C259.97 179.76 265.62 180.44 270.52 181.8C284.68 185.71 293.23 195.22 295.98 210.09H331.21C329.71 198.09 325.87 187.68 319.78 179.12C312.38 168.7 301.68 160.93 288 156.02C282.74 154.14 277.07 152.69 271.15 151.72L269.05 151.38V118.17H238.97V150.58L236.78 150.85C199.63 155.5 176.54 178.58 176.54 211.1C176.54 234.58 186.78 250.69 207.83 260.35C214.34 263.33 222.01 265.74 230.65 267.51L232.19 267.81L264.89 274.05C283.99 277.45 293.68 285.68 293.68 298.51C293.68 314.27 279.98 323.31 256.09 323.31C245.99 323.31 236.93 321.66 229.19 318.41C215.67 312.77 206.81 302.41 204.06 289.12H168.74C169.92 300.71 173.48 311.14 179.34 320.18C185.55 329.8 194.19 337.59 205.02 343.33C214.31 348.26 225 351.55 236.8 353.11L238.97 353.4V385.5H269.05V353.44L271.18 353.12C289.16 350.4 304.12 343.49 314.45 333.12C324.82 322.72 330.3 309.01 330.3 293.46C330.3 264.14 312.32 247.98 270.17 239.42ZM456.48 180.17H359.64C363.13 189.31 365.39 199.18 366.35 209.59L366.4 210.09H464.31C462.43 199.98 459.8 189.94 456.48 180.17ZM133.62 289.12H35.56C37.39 299.22 39.97 309.27 43.25 319.04H139.92C136.48 309.63 134.36 299.58 133.62 289.12ZM467.67 239.09H442.64C442.83 242.55 442.93 246.08 442.93 249.61C442.93 260.98 441.91 272.51 439.88 283.88C430.84 334.6 402.58 378.76 360.31 408.22C318.06 437.68 266.86 448.93 216.12 439.88C165.41 430.83 121.26 402.58 91.78 360.32C88.98 356.3 86.33 352.18 83.89 348.04H55.39C60.01 357.19 65.35 366.11 71.27 374.61C104.56 422.35 154.45 454.28 211.73 464.5C224.55 466.78 237.58 467.94 250.47 467.94C294.89 467.94 337.81 454.38 374.61 428.73C398.37 412.17 418.23 391.57 433.63 367.5C449.02 343.46 459.4 316.8 464.49 288.27C467.4 271.96 468.47 255.43 467.67 239.09ZM428.73 125.4C395.44 77.65 345.56 45.73 288.27 35.51C230.98 25.29 173.14 37.99 125.39 71.28C77.66 104.55 45.74 154.43 35.51 211.74C32.65 227.79 31.57 244.05 32.29 260.12H57.32C56.58 245.5 57.52 230.71 60.12 216.13C69.17 165.4 97.43 121.25 139.69 91.79C172.25 69.08 210.25 57.08 249.6 57.08C261.04 57.08 272.57 58.1 283.88 60.13C334.6 69.18 378.76 97.43 408.22 139.69C410.83 143.42 413.32 147.27 415.65 151.17H444.21C439.69 142.32 434.49 133.67 428.73 125.4Z" fill="black"/>
<path d="M270.17 239.42L246.39 234.66C229.75 231.34 214.35 225.75 214.35 207.54C214.35 189.33 229.07 179.76 253.72 179.76C259.97 179.76 265.62 180.44 270.52 181.8C284.68 185.71 293.23 195.22 295.98 210.09H331.21C329.71 198.09 325.87 187.68 319.78 179.12C312.38 168.7 301.68 160.93 288 156.02C282.74 154.14 277.07 152.69 271.15 151.72L269.05 151.38V118.17H238.97V150.58L236.78 150.85C199.63 155.5 176.54 178.58 176.54 211.1C176.54 234.58 186.78 250.69 207.83 260.35C214.34 263.33 222.01 265.74 230.65 267.51L232.19 267.81L264.89 274.05C283.99 277.45 293.68 285.68 293.68 298.51C293.68 314.27 279.98 323.31 256.09 323.31C245.99 323.31 236.93 321.66 229.19 318.41C215.67 312.77 206.81 302.41 204.06 289.12H168.74C169.92 300.71 173.48 311.14 179.34 320.18C185.55 329.8 194.19 337.59 205.02 343.33C214.31 348.26 225 351.55 236.8 353.11L238.97 353.4V385.5H269.05V353.44L271.18 353.12C289.16 350.4 304.12 343.49 314.45 333.12C324.82 322.72 330.3 309.01 330.3 293.46C330.3 264.14 312.32 247.98 270.17 239.42ZM456.48 180.17H359.64C363.13 189.31 365.39 199.18 366.35 209.59L366.4 210.09H464.31C462.43 199.98 459.8 189.94 456.48 180.17ZM133.62 289.12H35.56C37.39 299.22 39.97 309.27 43.25 319.04H139.92C136.48 309.63 134.36 299.58 133.62 289.12ZM467.67 239.09H442.64C442.83 242.55 442.93 246.08 442.93 249.61C442.93 260.98 441.91 272.51 439.88 283.88C430.84 334.6 402.58 378.76 360.31 408.22C318.06 437.68 266.86 448.93 216.12 439.88C165.41 430.83 121.26 402.58 91.78 360.32C88.98 356.3 86.33 352.18 83.89 348.04H55.39C60.01 357.19 65.35 366.11 71.27 374.61C104.56 422.35 154.45 454.28 211.73 464.5C224.55 466.78 237.58 467.94 250.47 467.94C294.89 467.94 337.81 454.38 374.61 428.73C398.37 412.17 418.23 391.57 433.63 367.5C449.02 343.46 459.4 316.8 464.49 288.27C467.4 271.96 468.47 255.43 467.67 239.09ZM428.73 125.4C395.44 77.65 345.56 45.73 288.27 35.51C230.98 25.29 173.14 37.99 125.39 71.28C77.66 104.55 45.74 154.43 35.51 211.74C32.65 227.79 31.57 244.05 32.29 260.12H57.32C56.58 245.5 57.52 230.71 60.12 216.13C69.17 165.4 97.43 121.25 139.69 91.79C172.25 69.08 210.25 57.08 249.6 57.08C261.04 57.08 272.57 58.1 283.88 60.13C334.6 69.18 378.76 97.43 408.22 139.69C410.83 143.42 413.32 147.27 415.65 151.17H444.21C439.69 142.32 434.49 133.67 428.73 125.4Z" fill="black"/>
</svg>
