<svg width="32" height="32" viewBox="0 0 32 32" fill="none" xmlns="http://www.w3.org/2000/svg">
<path d="M7.76205 24L11.6402 27.2318C12.0645 27.5853 12.1218 28.2159 11.7682 28.6402C11.4147 29.0644 10.7841 29.1218 10.3598 28.7682L4.35982 23.7682C4.13182 23.5782 4 23.2968 4 23C4 22.7032 4.13182 22.4217 4.35982 22.2318L10.3598 17.2318C10.7841 16.8782 11.4147 16.9355 11.7682 17.3598C12.1218 17.7841 12.0645 18.4146 11.6402 18.7682L7.76205 22H27C27.5523 22 28 22.4477 28 23C28 23.5523 27.5523 24 27 24H7.76205Z" fill="#D5E4FF"/>
<path d="M20.2318 14.6402C20.5853 15.0645 21.2159 15.1218 21.6402 14.7682L27.6402 9.76823C27.8682 9.57823 28 9.29679 28 9.00001C28 8.70323 27.8682 8.42178 27.6402 8.23178L21.6402 3.23178C21.2159 2.87822 20.5853 2.93554 20.2318 3.35982C19.8782 3.7841 19.9355 4.41466 20.3598 4.76823L24.238 8.00001H5C4.44772 8.00001 4 8.44772 4 9.00001C4 9.55229 4.44772 10 5 10H24.2379L20.3598 13.2318C19.9355 13.5853 19.8782 14.2159 20.2318 14.6402Z" fill="#D5E4FF"/>
</svg>
