<svg width="32" height="32" viewBox="0 0 32 32" fill="none" xmlns="http://www.w3.org/2000/svg">
<path fill-rule="evenodd" clip-rule="evenodd" d="M3 2C3.55229 2 4 2.44772 4 3V24.2C4 25.0566 4.00078 25.6389 4.03755 26.089C4.05352 26.2844 4.07528 26.4373 4.10155 26.5606C4.12617 26.5104 4.15535 26.4616 4.18918 26.4147L10.545 17.61C11.248 16.6361 12.6446 16.4971 13.5257 17.3133L15.8573 19.4731L26.1754 4.43426C26.4879 3.97885 27.1103 3.86297 27.5657 4.17542C28.0211 4.48787 28.137 5.11034 27.8246 5.56574L17.5065 20.6045C16.8162 21.6108 15.3935 21.7695 14.4982 20.9403L12.1666 18.7806L5.81082 27.5853C5.71108 27.7235 5.58261 27.8286 5.43949 27.8985C5.56275 27.9247 5.71561 27.9465 5.91104 27.9624C6.36113 27.9992 6.94342 28 7.8 28H29C29.5523 28 30 28.4477 30 29C30 29.5523 29.5523 30 29 30H7.75868C6.95372 30 6.28936 30 5.74817 29.9558C5.18608 29.9099 4.66937 29.8113 4.18404 29.564C3.43139 29.1805 2.81947 28.5686 2.43597 27.816C2.18868 27.3306 2.09012 26.8139 2.04419 26.2518C1.99998 25.7106 1.99999 25.0463 2 24.2413L2 3C2 2.44772 2.44772 2 3 2Z" fill="#242729"/>
</svg>
