<svg width="20" height="20" viewBox="0 0 20 20" fill="none" xmlns="http://www.w3.org/2000/svg">
<path fill-rule="evenodd" clip-rule="evenodd" d="M6.25 1.25C6.59518 1.25 6.875 1.52982 6.875 1.875V3.75H13.125V1.875C13.125 1.52982 13.4048 1.25 13.75 1.25C14.0952 1.25 14.375 1.52982 14.375 1.875V3.75H16.875C17.9105 3.75 18.75 4.58947 18.75 5.625V16.875C18.75 17.9105 17.9105 18.75 16.875 18.75H3.125C2.08947 18.75 1.25 17.9105 1.25 16.875V5.625C1.25 4.58947 2.08947 3.75 3.125 3.75H5.625V1.875C5.625 1.52982 5.90482 1.25 6.25 1.25ZM13.125 5V5.625C13.125 5.97018 13.4048 6.25 13.75 6.25C14.0952 6.25 14.375 5.97018 14.375 5.625V5H16.875C17.2202 5 17.5 5.27982 17.5 5.625V8.49998H2.5V5.625C2.5 5.27982 2.77982 5 3.125 5H5.625V5.625C5.625 5.97018 5.90482 6.25 6.25 6.25C6.59518 6.25 6.875 5.97018 6.875 5.625V5H13.125ZM2.5 9.74998V16.875C2.5 17.2202 2.77982 17.5 3.125 17.5H16.875C17.2202 17.5 17.5 17.2202 17.5 16.875V9.74998H2.5Z" fill="white"/>
</svg>
