<svg width="20" height="20" viewBox="0 0 20 20" fill="none" xmlns="http://www.w3.org/2000/svg">
<path d="M17.7815 12.5676C17.1087 13.3845 16.0464 14.0523 14.5416 14.0523C12.9696 14.0523 11.7637 13.1167 10.8733 12.0916C10.507 11.67 10.1763 11.2115 9.88149 10.7654C9.84165 10.7274 9.8062 10.6836 9.77652 10.6341C9.71327 10.5287 9.64977 10.4217 9.58568 10.3137C9.53667 10.2312 9.4871 10.1477 9.43726 10.0642C9.36289 9.9426 9.29159 9.82428 9.22336 9.71046C8.87717 9.14704 8.49911 8.58509 8.04358 8.10161C7.35475 7.3705 6.53825 6.87503 5.45828 6.87503C4.36785 6.87503 3.64591 7.34267 3.1833 7.90441C2.6986 8.49297 2.51483 9.16619 2.51483 9.49407V9.52524L2.51173 9.55626C2.4679 9.99457 2.5358 10.7085 2.88538 11.3536C3.21898 11.9691 3.81974 12.5468 4.91466 12.7705C5.23259 12.8137 5.78634 12.8275 6.37144 12.7162C6.96974 12.6023 7.53768 12.3701 7.93599 11.9718C8.18007 11.7277 8.57579 11.7277 8.81987 11.9718C9.06395 12.2158 9.06395 12.6116 8.81987 12.8557C8.18008 13.4954 7.34227 13.8039 6.6051 13.9441C5.86518 14.0849 5.16306 14.0688 4.72108 14.0056L4.70391 14.0032L4.6869 13.9998C3.19761 13.7019 2.28908 12.8767 1.7864 11.9492C1.30544 11.0617 1.20662 10.1048 1.26508 9.46177C1.27496 8.81737 1.57845 7.88685 2.21839 7.10978C2.8912 6.2928 3.95349 5.62503 5.45828 5.62503C6.98649 5.62503 8.11048 6.34979 8.95338 7.24442C9.25665 7.56631 9.52988 7.91747 9.77747 8.27168C9.82725 8.31358 9.87129 8.36404 9.90725 8.42249C10.0044 8.58038 10.1048 8.74812 10.2093 8.92261L10.2991 9.07249C10.372 9.19116 10.4422 9.30781 10.51 9.42138C10.884 10.0338 11.3104 10.6887 11.817 11.2719C12.6146 12.1901 13.5055 12.8023 14.5416 12.8023C15.6321 12.8023 16.354 12.3347 16.8166 11.7729C17.3013 11.1844 17.4851 10.5111 17.4851 10.1833V10.1521L17.4882 10.1211C17.532 9.68275 17.4641 8.9688 17.1145 8.32377C16.7809 7.70823 16.1802 7.13056 15.0852 6.90678C14.7673 6.8636 14.2136 6.84983 13.6285 6.96116C13.0302 7.07501 12.4622 7.30726 12.0639 7.70556C11.8198 7.94964 11.4241 7.94964 11.18 7.70556C10.936 7.46148 10.936 7.06576 11.18 6.82168C11.8198 6.18189 12.6576 5.87346 13.3948 5.73319C14.1347 5.5924 14.8368 5.60855 15.2788 5.67169L15.296 5.67414L15.313 5.67754C16.8023 5.9754 17.7108 6.80064 18.2135 7.72817C18.6945 8.61561 18.7933 9.57252 18.7348 10.2156C18.7249 10.86 18.4215 11.7905 17.7815 12.5676Z" fill="white"/>
<path d="M4.68745 8.43751C4.34227 8.43751 4.06245 8.71734 4.06245 9.06251C4.06245 9.40769 4.34227 9.68751 4.68745 9.68751H5.93745C6.28263 9.68751 6.56245 9.40769 6.56245 9.06251C6.56245 8.71734 6.28263 8.43751 5.93745 8.43751H4.68745Z" fill="white"/>
</svg>
