<svg width="16" height="16" viewBox="0 0 16 16" fill="none" xmlns="http://www.w3.org/2000/svg">
<circle cx="8" cy="8" r="8" fill="#D23AEA"/>
<path fill-rule="evenodd" clip-rule="evenodd" d="M7.89161 11.0859C8.25609 11.086 8.55177 11.3816 8.55177 11.7461C8.55161 12.1105 8.25599 12.4062 7.89161 12.4062C7.52717 12.4062 7.23162 12.1105 7.23146 11.7461C7.23146 11.3815 7.52707 11.0859 7.89161 11.0859ZM8.16017 3.71387C9.79707 3.71387 10.9004 4.68776 10.9004 6.01465C10.9004 6.9757 10.4171 7.65177 9.59865 8.1416C8.79892 8.61278 8.56935 8.94148 8.56935 9.58008C8.56923 9.7888 8.40014 9.9579 8.19142 9.95801H7.78224C7.50727 9.95801 7.28275 9.73686 7.27931 9.46191C7.24836 8.58775 7.62717 8.02989 8.47658 7.52148C9.2268 7.06886 9.49318 6.70894 9.49318 6.07031C9.49311 5.36973 8.94121 4.85547 8.09181 4.85547C7.46432 4.85553 7.00024 5.13206 6.7754 5.60254C6.62806 5.91094 6.36329 6.18848 6.0215 6.18848C5.6526 6.18843 5.3486 5.87681 5.44728 5.52148C5.74288 4.46088 6.66054 3.71388 8.16017 3.71387Z" fill="white"/>
</svg>
