<svg width="32" height="32" viewBox="0 0 32 32" fill="none" xmlns="http://www.w3.org/2000/svg">
<path fill-rule="evenodd" clip-rule="evenodd" d="M12.2146 5.21461C12.9232 4.50606 13.9165 4 15 4C16.0835 4 17.0768 4.50606 17.7854 5.21461C18.1836 5.61283 18.5179 6.10103 18.7343 6.64462C18.8166 6.85146 19.0095 7 19.2321 7H22C24.2091 7 26 8.79086 26 11V13.4511C26 13.7273 26.225 13.9476 26.4983 13.9875C27.3941 14.1184 28.1978 14.5896 28.793 15.1979C29.4967 15.917 30 16.9197 30 18C30 19.0835 29.4939 20.0768 28.7854 20.7854C28.1871 21.3837 27.3856 21.8377 26.4983 21.9644C26.225 22.0035 26 22.2239 26 22.5V24C26 26.2091 24.2091 28 22 28H18.5C18.2239 28 18 27.7761 18 27.5V26.4031C18 26.3662 17.9962 26.3293 17.9871 26.2936C17.7653 25.4206 16.9731 24.7733 16.0318 24.7733C14.9215 24.7733 14.0186 25.6737 14.0146 26.7831C14.0146 26.7872 14.0114 26.7905 14.0073 26.7905C14.0033 26.7905 14 26.7938 14 26.7978V27.5C14 27.7761 13.7761 28 13.5 28H8C5.79086 28 4 26.2091 4 24V19.5C4 19.2239 4.22386 19 4.5 19H7C8.11275 19 9 18.1127 9 17C9 15.8873 8.11275 15 7 15H4.5C4.22386 15 4 14.7761 4 14.5V11C4 8.79086 5.79086 7 8 7H10.7679C10.9905 7 11.1834 6.85146 11.2657 6.64462C11.4821 6.10103 11.8164 5.61283 12.2146 5.21461ZM19.8702 25.6027C19.9406 25.8304 20.1426 26 20.381 26H22C23.1046 26 24 25.1046 24 24V20.5C24 20.2239 24.2239 20 24.5 20H26C26.4586 20 26.9652 19.7771 27.3712 19.3712C27.7771 18.9652 28 18.4586 28 18C28 17.5382 27.7743 17.0165 27.3636 16.5967C26.9528 16.1769 26.4478 15.9511 26 15.9511H24.5C24.2239 15.9511 24 15.7273 24 15.4511V11C24 9.89543 23.1046 9 22 9H17.5C17.2239 9 17 8.77614 17 8.5V8C17 7.54135 16.7771 7.03475 16.3712 6.62882C15.9652 6.22289 15.4586 6 15 6C14.5414 6 14.0348 6.22289 13.6288 6.62882C13.2229 7.03475 13 7.54135 13 8V8.5C13 8.77614 12.7761 9 12.5 9H8C6.89543 9 6 9.89543 6 11V12.5C6 12.7761 6.22386 13 6.5 13H7C9.21732 13 11 14.7827 11 17C11 19.2173 9.21732 21 7 21H6.5C6.22386 21 6 21.2239 6 21.5V24C6 25.1046 6.89543 26 8 26H11.6825C11.9209 26 12.1229 25.8304 12.1934 25.6027C12.7003 23.9646 14.2279 22.7733 16.0318 22.7733C17.8357 22.7733 19.3632 23.9646 19.8702 25.6027Z" fill="white"/>
</svg>
