<svg width="597" height="512" viewBox="0 0 597 512" fill="none" xmlns="http://www.w3.org/2000/svg">
<g clip-path="url(#clip0_259_2831)">
<path d="M85.2857 384H255.857H341.143V341.333H255.857H85.2857V42.6667H42.6429V341.333H0V384H42.6429V512H85.2857H511.714V469.333H85.2857V384Z" fill="#F3F3E8"/>
<path d="M597 128H554.358V0H511.715H85.2861V42.6667H511.715V128H341.143H255.858V170.667H341.143H511.715V469.333H554.358V170.667H597V128Z" fill="#F3F3E8"/>
<path d="M341.143 256C341.143 232.436 322.051 213.333 298.5 213.333C274.949 213.333 255.857 232.436 255.857 256C255.857 279.564 274.949 298.667 298.5 298.667C322.051 298.667 341.143 279.564 341.143 256Z" fill="#F3F3E8"/>
</g>
<defs>
<clipPath id="clip0_259_2831">
<rect width="597" height="512" fill="white"/>
</clipPath>
</defs>
</svg>
