<svg width="560" height="480" viewBox="0 0 560 480" fill="none" xmlns="http://www.w3.org/2000/svg">
<g clip-path="url(#clip0_95_2487)">
<mask id="mask0_95_2487" style="mask-type:luminance" maskUnits="userSpaceOnUse" x="0" y="0" width="560" height="480">
<path d="M560 0H0V480H560V0Z" fill="white"/>
</mask>
<g mask="url(#mask0_95_2487)">
<path d="M80 360H240H320V320H240H80V40H40V320H0V360H40V480H80H480V440H80V360Z" fill="black"/>
<path d="M560 120H520V0H480H80V40H480V120H320H240V160H320H480V440H520V160H560V120Z" fill="black"/>
<path d="M320 240C320 217.909 302.091 200 280 200C257.909 200 240 217.909 240 240C240 262.091 257.909 280 280 280C302.091 280 320 262.091 320 240Z" fill="black"/>
</g>
</g>
<defs>
<clipPath id="clip0_95_2487">
<rect width="560" height="480" fill="white"/>
</clipPath>
</defs>
</svg>
