<svg width="20" height="20" viewBox="0 0 20 20" fill="none" xmlns="http://www.w3.org/2000/svg">
<path d="M16.0781 4.18047C16.3159 3.93022 16.3057 3.53462 16.0555 3.29688C15.8052 3.05914 15.4096 3.06928 15.1719 3.31953L3.29688 15.8195C3.05914 16.0698 3.06928 16.4654 3.31953 16.7031C3.56979 16.9409 3.96538 16.9307 4.20313 16.6805L16.0781 4.18047Z" fill="white"/>
<path fill-rule="evenodd" clip-rule="evenodd" d="M5.9375 8.75C7.4908 8.75 8.75 7.4908 8.75 5.9375C8.75 4.3842 7.4908 3.125 5.9375 3.125C4.3842 3.125 3.125 4.3842 3.125 5.9375C3.125 7.4908 4.3842 8.75 5.9375 8.75ZM5.9375 7.5C6.80045 7.5 7.5 6.80045 7.5 5.9375C7.5 5.07456 6.80045 4.375 5.9375 4.375C5.07456 4.375 4.375 5.07456 4.375 5.9375C4.375 6.80045 5.07456 7.5 5.9375 7.5Z" fill="white"/>
<path fill-rule="evenodd" clip-rule="evenodd" d="M14.0625 16.875C15.6158 16.875 16.875 15.6158 16.875 14.0625C16.875 12.5092 15.6158 11.25 14.0625 11.25C12.5092 11.25 11.25 12.5092 11.25 14.0625C11.25 15.6158 12.5092 16.875 14.0625 16.875ZM14.0625 15.625C14.9254 15.625 15.625 14.9254 15.625 14.0625C15.625 13.1996 14.9254 12.5 14.0625 12.5C13.1996 12.5 12.5 13.1996 12.5 14.0625C12.5 14.9254 13.1996 15.625 14.0625 15.625Z" fill="white"/>
</svg>
