<svg width="32" height="32" viewBox="0 0 32 32" fill="none" xmlns="http://www.w3.org/2000/svg">
<path d="M29.6875 7.17337C29.9331 7.66806 29.7312 8.26816 29.2365 8.51373C28.7418 8.75931 28.1417 8.55737 27.8961 8.06269L27.2623 6.78598L20.6338 20.8227C19.7703 22.6514 17.2059 22.7514 16.2026 20.9956L11.2166 12.2701C11.0065 11.9024 10.463 11.9461 10.3143 12.3426L3.93611 29.3512C3.74219 29.8683 3.16578 30.1303 2.64866 29.9364C2.13154 29.7425 1.86953 29.1661 2.06345 28.6489L8.44167 11.6403C9.18515 9.65775 11.9026 9.43936 12.9531 11.2778L17.9391 20.0033C18.1398 20.3545 18.6526 20.3345 18.8253 19.9687L25.5303 5.76992L23.6752 6.69087C23.1805 6.93645 22.5804 6.73451 22.3349 6.23983C22.0893 5.74515 22.2912 5.14505 22.7859 4.89947L26.5216 3.04495C27.0163 2.79937 27.6164 3.00131 27.8619 3.49599L29.6875 7.17337Z" fill="#242729"/>
</svg>
