<svg width="32" height="32" viewBox="0 0 32 32" fill="none" xmlns="http://www.w3.org/2000/svg">
<path fill-rule="evenodd" clip-rule="evenodd" d="M17.9291 28.9449C17.5406 28.5507 17.544 27.9177 17.9367 27.5311L18.8016 26.6794L17.9011 25.7278L15.0217 28.4791C14.6233 28.8598 13.9901 28.8443 13.6075 28.4444C13.2249 28.0445 13.2377 27.4116 13.6362 27.0309L16.5234 24.272L10.0655 17.448C9.25862 17.9515 8.29973 18.2313 7.27781 18.2031C4.51105 18.1268 2.32997 15.8221 2.40624 13.0553C2.4825 10.2886 4.78723 8.10749 7.55399 8.18376C10.3207 8.26002 12.5018 10.5647 12.4256 13.3315C12.3974 14.3534 12.0652 15.2954 11.5181 16.0732L21.8713 27.0133C22.2509 27.4145 22.2334 28.0474 21.8323 28.427C21.4312 28.8066 20.7982 28.7892 20.4186 28.3881L20.1795 28.1354L19.3436 28.9585C18.951 29.3452 18.3177 29.3391 17.9291 28.9449ZM7.33292 16.2038C5.67031 16.158 4.35965 14.7731 4.40548 13.1104C4.45131 11.4478 5.83627 10.1372 7.49888 10.183C9.16149 10.2288 10.4722 11.6138 10.4263 13.2764C10.3805 14.939 8.99553 16.2497 7.33292 16.2038Z" fill="#242729"/>
<path d="M11.9564 8.02482C12.036 6.20078 10.6797 4.7213 9.00428 4.64816C7.91188 4.60048 7.25778 5.07305 6.84453 5.56637C6.62945 5.82311 6.48068 6.08745 6.38622 6.28874C6.33957 6.38816 6.3078 6.46867 6.28892 6.52025C6.27952 6.54593 6.27343 6.5641 6.27039 6.57346L6.26828 6.58008C6.11206 7.10646 5.56 7.40887 5.03172 7.25602C4.5012 7.10253 4.19555 6.54802 4.34905 6.01749L5.30965 6.29542C4.34905 6.01749 4.34933 6.01653 4.34933 6.01653L4.34963 6.0155L4.35029 6.01325L4.35185 6.00797L4.35598 5.99431C4.35918 5.98387 4.3633 5.97074 4.36838 5.95512C4.37853 5.92391 4.39255 5.88259 4.41083 5.83266C4.44732 5.73301 4.5012 5.59778 4.57567 5.43909C4.72345 5.12417 4.95883 4.70291 5.31138 4.28206C6.03337 3.42018 7.24838 2.56961 9.0915 2.65007C11.7277 2.76515 13.7607 4.90068 13.9459 7.48874L27.8822 11.9203C28.4085 12.0877 28.6995 12.65 28.5322 13.1764C28.3648 13.7027 27.8025 13.9937 27.2762 13.8263L26.9449 13.7209L26.6116 14.8458C26.4551 15.3742 25.8979 15.6754 25.3671 15.5184C24.8364 15.3614 24.5331 14.8059 24.6896 14.2775L25.0345 13.1135L23.7861 12.7165L22.5975 16.5178C22.433 17.0438 21.8714 17.3366 21.343 17.1718C20.8147 17.0069 20.5197 16.4469 20.6842 15.9209L21.8761 12.1091L12.8029 9.22398C12.5518 9.14413 12.3543 8.97436 12.2345 8.76149C12.0516 8.57121 11.9439 8.30931 11.9564 8.02482Z" fill="#242729"/>
</svg>
