<svg width="32" height="32" viewBox="0 0 32 32" fill="none" xmlns="http://www.w3.org/2000/svg">
<circle cx="16" cy="16" r="16" fill="url(#paint0_linear_2801_1816)"/>
<path fill-rule="evenodd" clip-rule="evenodd" d="M20.7728 12.0227C20.7728 14.6586 18.636 16.7955 16.0001 16.7955C13.3642 16.7955 11.2274 14.6586 11.2274 12.0227C11.2274 9.38682 13.3642 7.25 16.0001 7.25C18.636 7.25 20.7728 9.38682 20.7728 12.0227ZM19.5228 12.0227C19.5228 13.9683 17.9456 15.5455 16.0001 15.5455C14.0545 15.5455 12.4774 13.9683 12.4774 12.0227C12.4774 10.0772 14.0545 8.5 16.0001 8.5C17.9456 8.5 19.5228 10.0772 19.5228 12.0227Z" fill="white"/>
<path d="M9.75 22.25C9.75 21.5596 10.3096 21 11 21H16H21C21.6904 21 22.25 21.5596 22.25 22.25V24.125C22.25 24.4702 22.5298 24.75 22.875 24.75C23.2202 24.75 23.5 24.4702 23.5 24.125V22.25C23.5 20.8693 22.3807 19.75 21 19.75H11C9.61929 19.75 8.5 20.8693 8.5 22.25V24.125C8.5 24.4702 8.77982 24.75 9.125 24.75C9.47018 24.75 9.75 24.4702 9.75 24.125V22.25Z" fill="white"/>
<defs>
<linearGradient id="paint0_linear_2801_1816" x1="0" y1="16" x2="32" y2="16" gradientUnits="userSpaceOnUse">
<stop stop-color="#2B95C9"/>
<stop offset="1" stop-color="#5DC2E8"/>
</linearGradient>
</defs>
</svg>
