<svg width="17" height="16" viewBox="0 0 17 16" fill="none" xmlns="http://www.w3.org/2000/svg">
<path fill-rule="evenodd" clip-rule="evenodd" d="M0 7.41538C0 3.4633 3.85193 0 8.5 0C13.1481 0 17 3.4633 17 7.41538C17 9.30791 16.2137 10.9389 14.7835 12.1956L16.3803 15.4235C16.4533 15.5711 16.428 15.7479 16.3166 15.8694C16.2051 15.9909 16.0302 16.0323 15.8757 15.9737L11.4029 14.2784C5.99313 16.5845 0 12.6932 0 7.41538ZM4.57394 6.81496C3.98313 6.81496 3.50418 7.29093 3.50418 7.87806C3.50418 8.4652 3.98313 8.94116 4.57394 8.94116C5.16476 8.94116 5.64371 8.4652 5.64371 7.87806C5.64371 7.29093 5.16476 6.81496 4.57394 6.81496ZM8.50001 6.81496C7.90919 6.81496 7.43024 7.29093 7.43024 7.87806C7.43024 8.4652 7.90919 8.94116 8.50001 8.94116C9.09083 8.94116 9.56978 8.4652 9.56978 7.87806C9.56978 7.29093 9.09083 6.81496 8.50001 6.81496ZM12.4261 6.81496C11.8352 6.81496 11.3563 7.29093 11.3563 7.87806C11.3563 8.4652 11.8352 8.94116 12.4261 8.94116C13.0169 8.94116 13.4958 8.4652 13.4958 7.87806C13.4958 7.29093 13.0169 6.81496 12.4261 6.81496Z" fill="#0090E1"/>
</svg>
